<svg xmlns="http://www.w3.org/2000/svg" xmlns:xlink="http://www.w3.org/1999/xlink" version="1.1" width="256" height="256" viewBox="0 0 256 256" xml:space="preserve">

<defs>
</defs>
<g style="stroke: none; stroke-width: 0; stroke-dasharray: none; stroke-linecap: butt; stroke-linejoin: miter; stroke-miterlimit: 10; fill: none; fill-rule: nonzero; opacity: 1;" transform="translate(1.4065934065934016 1.4065934065934016) scale(2.81 2.81)" >
	<path d="M 45 2 c 18.403 0 33.375 14.972 33.375 33.375 c 0 7.881 -2.816 15.54 -7.929 21.566 L 45 86.91 L 19.555 56.941 c -5.113 -6.026 -7.929 -13.685 -7.929 -21.567 C 11.625 16.972 26.597 2 45 2 M 21.064 33.24 h 4.828 h 4.097 v 15.583 v 2 h 2 h 26.021 h 2 v -2 V 33.24 h 4.097 h 4.828 l -3.414 -3.414 L 46.414 10.718 L 45 9.304 l -1.414 1.414 L 24.478 29.826 L 21.064 33.24 M 45 0 C 25.463 0 9.625 15.838 9.625 35.375 c 0 8.722 3.171 16.693 8.404 22.86 L 45 90 l 26.97 -31.765 c 5.233 -6.167 8.404 -14.139 8.404 -22.86 C 80.375 15.838 64.537 0 45 0 L 45 0 z M 25.892 31.24 L 45 12.133 L 64.108 31.24 h -6.097 v 17.583 H 31.989 V 31.24 H 25.892 L 25.892 31.24 z" style="stroke: none; stroke-width: 1; stroke-dasharray: none; stroke-linecap: butt; stroke-linejoin: miter; stroke-miterlimit: 10; fill: rgb(0,0,0); fill-rule: nonzero; opacity: 1;" transform=" matrix(1 0 0 1 0 0) " stroke-linecap="round" />
</g>
</svg>